<svg height="512pt" viewBox="-21 0 512 512" width="512pt" xmlns="http://www.w3.org/2000/svg"><path d="m466.578125 3.5c-2.027344-2.21875-4.886719-3.5-7.914063-3.5h-448c-3.03125 0-5.890624 1.28125-7.917968 3.5-2.023438 2.261719-3.007813 5.226562-2.6875002 8.234375l42.6679682 426.664063c.425782 4.183593 3.242188 7.722656 7.230469 9.066406l192 64c1.109375.34375 2.21875.535156 3.371094.535156 1.28125 0 2.539063-.234375 3.753906-.683594l170.667969-64c3.796875-1.40625 6.464844-4.882812 6.847656-8.917968l42.667969-426.664063c.320313-3.007813-.664063-5.972656-2.6875-8.234375zm0 0" fill="#ffc107"/><path d="m245.328125 512c-1.152344 0-2.261719-.191406-3.371094-.535156l-192-64c-3.988281-1.320313-6.804687-4.882813-7.230469-9.066406l-42.6679682-426.664063c-.3203128-3.007813.6640622-5.972656 2.6875002-8.234375 2.027344-2.21875 4.886718-3.5 7.917968-3.5h448c3.027344 0 5.886719 1.28125 7.914063 3.5 2.023437 2.238281 3.007813 5.226562 2.6875 8.234375l-42.667969 426.664063c-.40625 4.035156-3.070312 7.511718-6.847656 8.917968l-170.667969 64c-1.214843.449219-2.472656.683594-3.753906.683594zm-182.078125-82.601562 181.867188 60.628906 160.914062-60.351563 40.832031-408.34375h-424.402343zm0 0"/><path d="m266.664062 394.667969c-4.460937 0-8.621093-2.839844-10.136718-7.296875-1.855469-5.589844 1.175781-11.628906 6.742187-13.503906l58.007813-19.328126 17.941406-98.539062h-72.554688c-5.890624 0-10.667968-4.777344-10.667968-10.667969v-128c0-5.886719 4.777344-10.664062 10.667968-10.664062h106.664063c3.285156 0 6.402344 1.511719 8.425781 4.09375 2.027344 2.582031 2.730469 5.953125 1.941406 9.152343l-10.664062 42.667969c-1.429688 5.714844-7.148438 9.128907-12.929688 7.765625-5.738281-1.429687-9.195312-7.234375-7.765624-12.929687l7.316406-29.417969h-82.324219v106.667969h74.667969c3.15625 0 6.164062 1.386719 8.191406 3.839843 2.027344 2.410157 2.878906 5.628907 2.304688 8.746094l-21.335938 117.332032c-.703125 3.839843-3.433594 6.976562-7.125 8.214843l-64 21.332031c-1.128906.363282-2.238281.535157-3.367188.535157zm0 0"/><path d="m223.996094 394.667969c-.980469 0-1.964844-.128907-2.945313-.429688l-74.664062-21.332031c-3.84375-1.085938-6.722657-4.246094-7.53125-8.171875l-10.667969-53.332031c-1.171875-5.78125 2.582031-11.390625 8.382812-12.542969 5.484376-1.214844 11.371094 2.558594 12.546876 8.382813l9.386718 46.933593 54.824219 15.679688v-241.855469h-117.332031c-5.886719 0-10.667969-4.777344-10.667969-10.667969 0-5.886719 4.78125-10.664062 10.667969-10.664062h128c5.886718 0 10.667968 4.777343 10.667968 10.664062v266.667969c0 3.347656-1.558593 6.507812-4.246093 8.511719-1.878907 1.429687-4.140625 2.15625-6.421875 2.15625zm0 0"/></svg>