<svg id="Capa_1" enable-background="new 0 0 512.014 512.014" height="512" viewBox="0 0 512.014 512.014" width="512" xmlns="http://www.w3.org/2000/svg"><g><g id="Layer_2_8_"><g id="Surfaces_9_"><g id="UI_UX_Surface"><g id="Outline_no_shadow_9_"><path d="m90.669 6.4h330.676c50.075 0 90.669 40.594 90.669 90.669v317.876c0 50.075-40.594 90.669-90.669 90.669h-330.676c-50.075 0-90.669-40.594-90.669-90.669v-317.876c0-50.075 40.594-90.669 90.669-90.669z" fill="#470137"/></g></g></g><g id="Outlined_Mnemonics_Logos_8_"><g id="Xd" fill="#ff61f6"><path d="m269.164 137.686-63.887 105.447 68.352 111.973c.438.783.561 1.705.344 2.576-.231.805-1.03.298-2.404.524h-48.773c-3.436 0-5.84-.121-7.214-2.413-4.583-8.93-9.163-17.803-13.739-26.619-4.583-8.813-9.449-17.801-14.597-26.963-5.152-9.155-10.247-18.429-15.285-27.822h-.344c-4.583 9.161-9.335 18.321-14.255 27.478-4.926 9.161-9.792 18.263-14.597 27.306-4.809 9.048-9.732 18.036-14.769 26.963-.918 2.061-2.523 2.273-4.81 2.273h-47.056c-.913 0-1.428.361-1.546-.556-.129-.838.054-1.693.516-2.404l66.29-108.882-64.573-109.225c-.687-.912-.801-1.656-.344-2.232.514-.594 1.278-.912 2.062-.859h48.429c1.056-.058 2.112.118 3.092.516.821.465 1.526 1.111 2.061 1.889 4.122 9.161 8.702 18.32 13.739 27.478 5.035 9.161 10.129 18.206 15.285 27.135 5.152 8.93 9.904 17.975 14.255 27.135h.344c4.577-9.387 9.214-18.546 13.911-27.478 4.691-8.93 9.499-17.918 14.425-26.963 4.922-9.043 9.674-18.031 14.255-26.963.263-.848.736-1.615 1.374-2.232.848-.43 1.801-.609 2.748-.516h44.995c1.055-.26 2.122.384 2.383 1.439.18.737-.079 1.514-.667 1.995z"/><path d="m367.737 362.663c-15.809.24-31.474-3.045-45.854-9.618-13.396-6.2-24.595-16.321-32.114-29.024-7.788-12.934-11.68-29.135-11.678-48.602-.129-15.764 3.899-31.284 11.678-44.996 8.013-13.966 19.798-25.394 34.004-32.974 14.882-8.243 32.857-12.365 53.926-12.365 1.143 0 2.631.057 4.465.172 1.83.118 4.006.289 6.526.515v-67.665c0-1.599.688-2.404 2.062-2.404h43.277c.996-.142 1.919.55 2.061 1.546.024.171.024.344 0 .515v202.995c0 3.896.172 8.133.515 12.709.344 4.583.63 8.705.859 12.365.086 1.46-.732 2.824-2.062 3.435-11.165 4.656-22.794 8.111-34.69 10.304-10.878 2.008-21.913 3.042-32.975 3.092zm20.952-42.591v-93.769c-1.856-.503-3.752-.848-5.667-1.031-2.34-.235-4.69-.35-7.042-.343-8.335-.083-16.572 1.8-24.043 5.495-7.277 3.617-13.49 9.061-18.032 15.8-4.696 6.869-7.043 15.914-7.042 27.135-.167 7.487 1.056 14.941 3.606 21.982 2.076 5.674 5.357 10.83 9.618 15.113 4.079 3.941 9.017 6.88 14.425 8.587 5.713 1.85 11.684 2.777 17.689 2.747 3.204 0 6.181-.115 8.93-.343 2.562-.192 5.094-.653 7.558-1.373z"/></g></g></g></g></svg>